<?xml version="1.0" encoding="UTF-8" standalone="no"?>
<!-- Generator: Adobe Illustrator 15.1.0, SVG Export Plug-In . SVG Version: 6.00 Build 0)  -->

<svg
   xmlns:dc="http://purl.org/dc/elements/1.1/"
   xmlns:cc="http://creativecommons.org/ns#"
   xmlns:rdf="http://www.w3.org/1999/02/22-rdf-syntax-ns#"
   xmlns:svg="http://www.w3.org/2000/svg"
   xmlns="http://www.w3.org/2000/svg"
   xmlns:sodipodi="http://sodipodi.sourceforge.net/DTD/sodipodi-0.dtd"
   xmlns:inkscape="http://www.inkscape.org/namespaces/inkscape"
   version="1.1"
   id="Layer_1"
   x="0px"
   y="0px"
   width="100"
   height="100"
   viewBox="0 0 100 100"
   enable-background="new 0 0 71 100"
   xml:space="preserve"
   sodipodi:docname="passwords.svg"
   inkscape:version="0.92.2 (5c3e80d, 2017-08-06)"
   inkscape:export-filename="C:\SAP\GIT\ABAPFavorites\ABAP Project Extensions\icons\passwords.png"
   inkscape:export-xdpi="15.298804"
   inkscape:export-ydpi="15.298804"><metadata
     id="metadata9"><rdf:RDF><cc:Work
         rdf:about=""><dc:format>image/svg+xml</dc:format><dc:type
           rdf:resource="http://purl.org/dc/dcmitype/StillImage" /><dc:title></dc:title></cc:Work></rdf:RDF></metadata><defs
     id="defs7" /><sodipodi:namedview
     pagecolor="#ffffff"
     bordercolor="#666666"
     borderopacity="1"
     objecttolerance="10"
     gridtolerance="10"
     guidetolerance="10"
     inkscape:pageopacity="0"
     inkscape:pageshadow="2"
     inkscape:window-width="2058"
     inkscape:window-height="1108"
     id="namedview5"
     showgrid="false"
     inkscape:zoom="1.18"
     inkscape:cx="113.56642"
     inkscape:cy="-31.703415"
     inkscape:window-x="168"
     inkscape:window-y="72"
     inkscape:window-maximized="0"
     inkscape:current-layer="Layer_1" /><text
     xml:space="preserve"
     style="font-style:normal;font-variant:normal;font-weight:normal;font-stretch:normal;font-size:192px;line-height:1.25;font-family:Webdings;-inkscape-font-specification:Webdings;letter-spacing:0px;word-spacing:0px;fill:#000000;fill-opacity:1;stroke:none"
     x="37.711864"
     y="71.610168"
     id="text1380"><tspan
       sodipodi:role="line"
       id="tspan1378"
       x="37.711864"
       y="249.17267" /></text>
<path
     id="path5660"
     d="m 93.019518,35.899841 c 0,16.436298 -13.324291,29.760422 -29.760597,29.760422 -1.897237,0 -3.752196,-0.179578 -5.550852,-0.518947 l -4.060294,4.567913 a 4.0580937,4.0580937 0 0 1 -3.03321,1.362054 h -6.294199 v 6.763772 c 0,2.241342 -1.816919,4.058261 -4.058262,4.058261 h -6.763771 v 6.763767 c 0,2.24135 -1.816919,4.05827 -4.058262,4.05827 H 10.501507 c -2.241342,0 -4.058261,-1.81692 -4.058261,-4.05827 V 75.457754 c 0,-1.076283 0.427643,-2.108604 1.188566,-2.869695 l 27.35979,-27.359796 c -0.967722,-2.934462 -1.493269,-6.069975 -1.493269,-9.328589 0,-16.436305 13.324124,-29.7604288 29.760421,-29.7605968 16.484834,-1.67e-4 29.760764,13.2757618 29.760764,29.7607638 z M 63.258921,27.783143 c 0,4.482693 3.633839,8.116531 8.116531,8.116531 4.482685,0 8.116523,-3.633838 8.116523,-8.116531 0,-4.482684 -3.633838,-8.116523 -8.116523,-8.116523 -4.482692,0 -8.116531,3.633839 -8.116531,8.116523 z"
     inkscape:connector-curvature="0"
     style="fill:#cd853f;fill-opacity:1;stroke-width:0.16909428"
     inkscape:export-xdpi="15.298804"
     inkscape:export-ydpi="15.298804" /></svg>