<?xml version="1.0" encoding="UTF-8" standalone="no"?>
<svg
   xmlns:dc="http://purl.org/dc/elements/1.1/"
   xmlns:cc="http://creativecommons.org/ns#"
   xmlns:rdf="http://www.w3.org/1999/02/22-rdf-syntax-ns#"
   xmlns:svg="http://www.w3.org/2000/svg"
   xmlns="http://www.w3.org/2000/svg"
   xmlns:sodipodi="http://sodipodi.sourceforge.net/DTD/sodipodi-0.dtd"
   xmlns:inkscape="http://www.inkscape.org/namespaces/inkscape"
   width="1792"
   height="1792"
   viewBox="0 0 1792 1792"
   id="svg2"
   version="1.1"
   inkscape:version="0.91 r13725"
   sodipodi:docname="view_table.svg">
  <metadata
     id="metadata10">
    <rdf:RDF>
      <cc:Work
         rdf:about="">
        <dc:format>image/svg+xml</dc:format>
        <dc:type
           rdf:resource="http://purl.org/dc/dcmitype/StillImage" />
        <dc:title></dc:title>
      </cc:Work>
    </rdf:RDF>
  </metadata>
  <defs
     id="defs8" />
  <sodipodi:namedview
     pagecolor="#ffffff"
     bordercolor="#666666"
     borderopacity="1"
     objecttolerance="10"
     gridtolerance="10"
     guidetolerance="10"
     inkscape:pageopacity="0"
     inkscape:pageshadow="2"
     inkscape:window-width="1920"
     inkscape:window-height="996"
     id="namedview6"
     showgrid="false"
     inkscape:zoom="0.37249375"
     inkscape:cx="979.1903"
     inkscape:cy="1012.5087"
     inkscape:window-x="-8"
     inkscape:window-y="54"
     inkscape:window-maximized="1"
     inkscape:current-layer="svg2" />
  <path
     d="M576 1376v-192q0-14-9-23t-23-9h-320q-14 0-23 9t-9 23v192q0 14 9 23t23 9h320q14 0 23-9t9-23zm0-384v-192q0-14-9-23t-23-9h-320q-14 0-23 9t-9 23v192q0 14 9 23t23 9h320q14 0 23-9t9-23zm512 384v-192q0-14-9-23t-23-9h-320q-14 0-23 9t-9 23v192q0 14 9 23t23 9h320q14 0 23-9t9-23zm-512-768v-192q0-14-9-23t-23-9h-320q-14 0-23 9t-9 23v192q0 14 9 23t23 9h320q14 0 23-9t9-23zm512 384v-192q0-14-9-23t-23-9h-320q-14 0-23 9t-9 23v192q0 14 9 23t23 9h320q14 0 23-9t9-23zm512 384v-192q0-14-9-23t-23-9h-320q-14 0-23 9t-9 23v192q0 14 9 23t23 9h320q14 0 23-9t9-23zm-512-768v-192q0-14-9-23t-23-9h-320q-14 0-23 9t-9 23v192q0 14 9 23t23 9h320q14 0 23-9t9-23zm512 384v-192q0-14-9-23t-23-9h-320q-14 0-23 9t-9 23v192q0 14 9 23t23 9h320q14 0 23-9t9-23zm0-384v-192q0-14-9-23t-23-9h-320q-14 0-23 9t-9 23v192q0 14 9 23t23 9h320q14 0 23-9t9-23zm128-320v1088q0 66-47 113t-113 47h-1344q-66 0-113-47t-47-113v-1088q0-66 47-113t113-47h1344q66 0 113 47t47 113z"
     id="path4"
     style="fill:#ffc800;fill-opacity:1" />
  <path
     inkscape:connector-curvature="0"
     d="m 901.7035,1625.2499 0,-147.0844 q 0,-10.7249 -6.69133,-17.6195 -6.69121,-6.8945 -17.09994,-6.8945 l -237.91292,0 q -10.4087,0 -17.1,6.8945 -6.6913,6.8946 -6.6913,17.6195 l 0,147.0844 q 0,10.7249 6.6913,17.6195 6.6913,6.8946 17.1,6.8946 l 237.91292,0 q 10.40873,0 17.09994,-6.8946 6.69133,-6.8946 6.69133,-17.6195 z m 0,-294.1689 0,-147.0844 q 0,-10.7249 -6.69133,-17.6195 -6.69121,-6.8946 -17.09994,-6.8946 l -237.91292,0 q -10.4087,0 -17.1,6.8946 -6.6913,6.8946 -6.6913,17.6195 l 0,147.0844 q 0,10.725 6.6913,17.6195 6.6913,6.8946 17.1,6.8946 l 237.91292,0 q 10.40873,0 17.09994,-6.8946 6.69133,-6.8945 6.69133,-17.6195 z m 380.6607,294.1689 0,-147.0844 q 0,-10.7249 -6.6913,-17.6195 -6.6913,-6.8945 -17.1,-6.8945 l -237.913,0 q -10.4086,0 -17.1,6.8945 -6.69128,6.8946 -6.69128,17.6195 l 0,147.0844 q 0,10.7249 6.69128,17.6195 6.6914,6.8946 17.1,6.8946 l 237.913,0 q 10.4087,0 17.1,-6.8946 6.6913,-6.8946 6.6913,-17.6195 z m -380.6607,-588.3377 0,-147.08453 q 0,-10.7249 -6.69133,-17.61949 -6.69121,-6.89457 -17.09994,-6.89457 l -237.91292,0 q -10.4087,0 -17.1,6.89457 -6.6913,6.89459 -6.6913,17.61949 l 0,147.08453 q 0,10.7248 6.6913,17.6194 6.6913,6.8946 17.1,6.8946 l 237.91292,0 q 10.40873,0 17.09994,-6.8946 6.69133,-6.8946 6.69133,-17.6194 z m 380.6607,294.1688 0,-147.0844 q 0,-10.7249 -6.6913,-17.6195 -6.6913,-6.8946 -17.1,-6.8946 l -237.913,0 q -10.4086,0 -17.1,6.8946 -6.69128,6.8946 -6.69128,17.6195 l 0,147.0844 q 0,10.725 6.69128,17.6195 6.6914,6.8946 17.1,6.8946 l 237.913,0 q 10.4087,0 17.1,-6.8946 6.6913,-6.8945 6.6913,-17.6195 z m 380.6607,294.1689 0,-147.0844 q 0,-10.7249 -6.6913,-17.6195 -6.6912,-6.8945 -17.1,-6.8945 l -237.913,0 q -10.4086,0 -17.0999,6.8945 -6.6914,6.8946 -6.6914,17.6195 l 0,147.0844 q 0,10.7249 6.6914,17.6195 6.6913,6.8946 17.0999,6.8946 l 237.913,0 q 10.4088,0 17.1,-6.8946 6.6913,-6.8946 6.6913,-17.6195 z m -380.6607,-588.3377 0,-147.08453 q 0,-10.7249 -6.6913,-17.61949 -6.6913,-6.89457 -17.1,-6.89457 l -237.913,0 q -10.4086,0 -17.1,6.89457 -6.69128,6.89459 -6.69128,17.61949 l 0,147.08453 q 0,10.7248 6.69128,17.6194 6.6914,6.8946 17.1,6.8946 l 237.913,0 q 10.4087,0 17.1,-6.8946 6.6913,-6.8946 6.6913,-17.6194 z m 380.6607,294.1688 0,-147.0844 q 0,-10.7249 -6.6913,-17.6195 -6.6912,-6.8946 -17.1,-6.8946 l -237.913,0 q -10.4086,0 -17.0999,6.8946 -6.6914,6.8946 -6.6914,17.6195 l 0,147.0844 q 0,10.725 6.6914,17.6195 6.6913,6.8946 17.0999,6.8946 l 237.913,0 q 10.4088,0 17.1,-6.8946 6.6913,-6.8945 6.6913,-17.6195 z m 0,-294.1688 0,-147.08453 q 0,-10.7249 -6.6913,-17.61949 -6.6912,-6.89457 -17.1,-6.89457 l -237.913,0 q -10.4086,0 -17.0999,6.89457 -6.6914,6.89459 -6.6914,17.61949 l 0,147.08453 q 0,10.7248 6.6914,17.6194 6.6913,6.8946 17.0999,6.8946 l 237.913,0 q 10.4088,0 17.1,-6.8946 6.6913,-6.8946 6.6913,-17.6194 z m 95.1652,-245.1408 0,833.4785 q 0,50.5603 -34.9434,86.5653 -34.9435,36.0051 -84.0131,36.0051 l -999.23429,0 q -49.06955,0 -84.01301,-36.0051 -34.94346,-36.005 -34.94346,-86.5653 l 0,-833.4785 q 0,-50.56028 34.94346,-86.56533 34.94346,-36.00504 84.01301,-36.00504 l 999.23429,0 q 49.0696,0 84.0131,36.00504 34.9434,36.00505 34.9434,86.56533 z"
     id="path4-1"
     style="fill:#536ee4;fill-opacity:1" />
</svg>
